<svg xmlns="http://www.w3.org/2000/svg" width="139.167" height="60.598" viewBox="0 0 139.167 60.598">
    <g id="logo-RedAzul" transform="translate(0 0)">
        <g id="Grupo_11" data-name="Grupo 11" transform="translate(0 0)">
        <circle id="Elipse_2" data-name="Elipse 2" cx="30.299" cy="30.299" r="30.299" transform="translate(0 0)" fill="#29abe2"/>
        <g id="Grupo_10" data-name="Grupo 10" transform="translate(1.002 1.001)">
            <path id="Trazado_15" data-name="Trazado 15" d="M67.813,38.507a1.191,1.191,0,0,0-.512-.979,28.765,28.765,0,0,0-27.8-27.8,1.191,1.191,0,0,0-1.968,0A28.766,28.766,0,0,0,9.8,37.482a1.19,1.19,0,0,0,0,2.051A28.765,28.765,0,0,0,37.494,67.222a1.189,1.189,0,0,0,2.043,0A28.764,28.764,0,0,0,67.3,39.487,1.19,1.19,0,0,0,67.813,38.507ZM51.859,50.223a1.24,1.24,0,0,0-.144-.139,53.708,53.708,0,0,0,1.208-10.469,1.191,1.191,0,0,0,.664-.649H65.522a1.2,1.2,0,0,0,.71.665,8.222,8.222,0,0,1-1.92,3.812,18.272,18.272,0,0,1-5.856,4.328,35.148,35.148,0,0,1-6.6,2.451ZM37.414,66.16a8.213,8.213,0,0,1-3.828-1.923,18.272,18.272,0,0,1-4.328-5.856,35.027,35.027,0,0,1-2.415-6.466,1.169,1.169,0,0,0,.22-.249,53.988,53.988,0,0,0,11,1.192V65.51A1.193,1.193,0,0,0,37.414,66.16ZM25.188,50.208a35.072,35.072,0,0,1-6.54-2.434,18.312,18.312,0,0,1-5.856-4.328,8.216,8.216,0,0,1-1.925-3.836,1.191,1.191,0,0,0,.643-.641H23.553a1.193,1.193,0,0,0,.627.634,53.614,53.614,0,0,0,1.2,10.437,1.13,1.13,0,0,0-.19.17ZM25.146,26.76a1.262,1.262,0,0,0,.222.209A53.735,53.735,0,0,0,24.18,37.415a1.189,1.189,0,0,0-.6.575h-12.1a1.193,1.193,0,0,0-.625-.586,8.181,8.181,0,0,1,1.935-3.891,18.272,18.272,0,0,1,5.856-4.328,35.015,35.015,0,0,1,6.5-2.423Zm14.5-15.974a8.191,8.191,0,0,1,3.875,1.933,18.272,18.272,0,0,1,4.328,5.856,34.972,34.972,0,0,1,2.415,6.468,1.176,1.176,0,0,0-.246.241A54,54,0,0,0,39.04,24.1V11.471a1.189,1.189,0,0,0,.6-.685ZM49.811,50.721a53.084,53.084,0,0,1-10.769,1.158V38.967H51.388a1.191,1.191,0,0,0,.558.6,52.779,52.779,0,0,1-1.17,10.268,1.191,1.191,0,0,0-.964.886Zm1.606-12.733H39.043V25.077A53.177,53.177,0,0,1,49.8,26.232a1.191,1.191,0,0,0,.992.95,52.781,52.781,0,0,1,1.158,10.266,1.2,1.2,0,0,0-.531.543ZM38.063,11.5V24.1a54,54,0,0,0-11.038,1.2,1.241,1.241,0,0,0-.2-.21,35.035,35.035,0,0,1,2.428-6.514,18.312,18.312,0,0,1,4.328-5.856,8.233,8.233,0,0,1,3.809-1.92,1.2,1.2,0,0,0,.67.706Zm-10.844,39.2a1.191,1.191,0,0,0-.886-.856A52.72,52.72,0,0,1,25.16,39.586a1.2,1.2,0,0,0,.595-.619H38.063V51.879a53.06,53.06,0,0,1-10.844-1.174ZM25.726,37.989a1.2,1.2,0,0,0-.568-.56,52.814,52.814,0,0,1,1.161-10.26,1.2,1.2,0,0,0,.915-.922,53.072,53.072,0,0,1,10.828-1.171V37.988H25.726ZM39.042,65.544V52.858A54.059,54.059,0,0,0,49.979,51.68a1.185,1.185,0,0,0,.27.282,34.956,34.956,0,0,1-2.4,6.419,18.312,18.312,0,0,1-4.328,5.856,8.176,8.176,0,0,1-3.9,1.936,1.2,1.2,0,0,0-.583-.63ZM65.549,37.989H53.559a1.192,1.192,0,0,0-.636-.589,53.746,53.746,0,0,0-1.2-10.478,1.165,1.165,0,0,0,.173-.178,35.111,35.111,0,0,1,6.556,2.44,18.312,18.312,0,0,1,5.856,4.328,8.193,8.193,0,0,1,1.931,3.867,1.2,1.2,0,0,0-.693.61ZM49.368,12.873a27.77,27.77,0,0,1,16.641,21.3c-2.263-3.615-7.3-6.615-13.871-8.378a1.194,1.194,0,0,0-.921-.959C49.453,18.3,46.459,13.277,42.853,11.02a27.546,27.546,0,0,1,6.515,1.853ZM12.947,27.661A27.77,27.77,0,0,1,34.25,11.02c-3.6,2.256-6.6,7.27-8.36,13.807a1.192,1.192,0,0,0-1,.992c-6.531,1.766-11.542,4.757-13.8,8.358A27.546,27.546,0,0,1,12.947,27.661Zm14.788,36.42a27.77,27.77,0,0,1-16.641-21.3c2.254,3.6,7.261,6.589,13.787,8.355a1.191,1.191,0,0,0,1.025,1.056c1.768,6.5,4.751,11.5,8.343,13.745A27.546,27.546,0,0,1,27.735,64.081Zm36.42-14.788a27.77,27.77,0,0,1-21.3,16.641c3.593-2.249,6.579-7.245,8.347-13.756a1.192,1.192,0,0,0,.948-1.024c6.563-1.763,11.6-4.762,13.862-8.375a27.546,27.546,0,0,1-1.853,6.515Z" transform="translate(-9.22 -9.21)" fill="#fff"/>
            <path id="Trazado_16" data-name="Trazado 16" d="M36.486,304.526a27.855,27.855,0,0,0,4.615,2.522,26.612,26.612,0,0,0,5.931,1.79,24.626,24.626,0,0,0,3.885.347,1.2,1.2,0,0,1,.649-.65V281.88H39.257a1.086,1.086,0,0,1-.183.4,1.126,1.126,0,0,1-.411.333,1.254,1.254,0,0,1-.979.015,1.114,1.114,0,0,1-.5-.386,1.1,1.1,0,0,1-.129-.248H25.014a1.131,1.131,0,0,1-.644.641,23.515,23.515,0,0,0,.253,3.214c.029.2.171,1.129.476,2.37a28.587,28.587,0,0,0,1.149,3.617,27.549,27.549,0,0,0,3.079,5.669,28.051,28.051,0,0,0,7.155,7.022Z" transform="translate(-22.723 -252.235)" fill="#0071bc"/>
            <path id="Trazado_17" data-name="Trazado 17" d="M297.7,28.255a27.839,27.839,0,0,0-4.576-2.458,26.53,26.53,0,0,0-6.451-1.845,24.061,24.061,0,0,0-3.275-.241,1.179,1.179,0,0,1-.2.36,1.218,1.218,0,0,1-.4.325q-.042,13.264-.086,26.527l12.46-.01a1.185,1.185,0,0,1,.215-.308,1.211,1.211,0,0,1,.315-.234,1.3,1.3,0,0,1,.977-.048,1.206,1.206,0,0,1,.518.394,1.262,1.262,0,0,1,.119.2H309.3A1.2,1.2,0,0,1,310,50.3a19.216,19.216,0,0,0-.308-3.659c-.152-.839-.325-1.478-.5-2.12a30.97,30.97,0,0,0-1.2-3.612,29.663,29.663,0,0,0-3.107-5.674,27.734,27.734,0,0,0-7.182-6.982Z" transform="translate(-252.975 -22.134)" fill="#0071bc"/>
            <g id="Grupo_9" data-name="Grupo 9" transform="translate(25.578 1.048)">
            <path id="Trazado_18" data-name="Trazado 18" d="M249.888,43.771a.944.944,0,0,1-.6-1c0-1.307.007-22.618.009-23.924h-2.213c0,1.4.005,22.808.009,24.209,0,.394-.195.5-.478.637a3.482,3.482,0,0,0-2.134,3.226,3.428,3.428,0,0,0,2.1,3.464.955.955,0,0,1,.623,1q-.008,1.869-.01,3.738h2.024q0-1.815-.012-3.629a1.081,1.081,0,0,1,.686-1.134,3.689,3.689,0,0,0,0-6.588Z" transform="translate(-244.478 -18.85)" fill="#fff"/>
            <path id="Trazado_19" data-name="Trazado 19" d="M264.727,266.256a1.681,1.681,0,0,1-1.653-1.811,1.7,1.7,0,0,1,3.387.128,1.693,1.693,0,0,1-1.733,1.683Z" transform="translate(-261.052 -236.337)" fill="#29abe2"/>
            </g>
            <path id="Trazado_20" data-name="Trazado 20" d="M131.107,314.643q0,3.006,0,6.01a9.412,9.412,0,0,1-.092,1.573,7.412,7.412,0,0,1-12.833,3.952,7.231,7.231,0,0,1-1.79-6.319,4.429,4.429,0,0,1,1.049-2.457c.058,1.173.051,2.334.061,3.5.005.743.419,1.2,1.046,1.2s.97-.418.97-1.174q0-3.976,0-7.953c0-.152.084-.333-.089-.475-.361.272-.721.537-1.074.81-3.014,2.326-4.545,5.29-4.016,9.191a9.443,9.443,0,0,0,18.8-1.4q.007-3.229.005-6.458h-2.029Z" transform="translate(-102.816 -279.525)" fill="#fff"/>
            <path id="Trazado_21" data-name="Trazado 21" d="M293.94,118.68a29.426,29.426,0,0,0-4.588-4.287,16.9,16.9,0,0,0-2.745-1.715,11.809,11.809,0,0,0-3.224-1.131,10.524,10.524,0,0,0-2.72-.151,10.1,10.1,0,0,0-2.543.538,11.1,11.1,0,0,0-3.989,2.555,11.453,11.453,0,0,0-1.819,2.061s-.146.214-1.088,1.76c.139-.128.348-.313.611-.522a12.6,12.6,0,0,1,3.057-1.71,14.43,14.43,0,0,1,2.9-.995,12.959,12.959,0,0,1,3.593-.212,16.955,16.955,0,0,1,4.077.744c.154.047.88.265,1.806.638,1.269.511,1.772.849,2.461,1.164a2.773,2.773,0,0,1,.485.271l.21.153a.409.409,0,0,1-.146.051c-.179.023-.306-.1-.566-.245-.109-.061-.224-.108-.335-.163a6.832,6.832,0,0,0-1.055-.4c-1.722-.537-2.83-.761-2.83-.761a18.779,18.779,0,0,0-3.289-.439,16.848,16.848,0,0,0-2.87.142,17.648,17.648,0,0,0-5.5,1.729,16.911,16.911,0,0,0-2.417,1.476,19.336,19.336,0,0,0-2.4,2.2c-.048.052-.066.076-.066.076s-.024.033-.047.06a.206.206,0,0,1-.04.041.1.1,0,0,1-.083.017c-.023-.008-.035-.027-.051-.054a.477.477,0,0,1-.039-.1l-.011-.028h-.189v2.591h.449a12.431,12.431,0,0,1,1.757.213c0-.191.005-.485,0-.847,0-.511-.014-.547,0-.708a1.7,1.7,0,0,1,.331-1.077c.149-.158.462-.378.648-.561.03-.03.046-.043.076-.071a.7.7,0,0,1,.246-.171.351.351,0,0,1,.183-.01.332.332,0,0,1,.117.054,8.363,8.363,0,0,0,1.026.432c.948.37,1.834.659,1.834.659a20.5,20.5,0,0,0,3,.838,11.611,11.611,0,0,0,2.019.212,12.1,12.1,0,0,0,2.833-.336,25.887,25.887,0,0,0,3.217-.927c.731-.249.907-.336,1.518-.513a18.4,18.4,0,0,1,2.244-.5,20.948,20.948,0,0,1,3.046-.234c1.131-.008,2.466.071,2.5.072-.373-.464-.917-1.12-1.6-1.878Z" transform="translate(-240.301 -100.26)" fill="#fff"/>
        </g>
        </g>
        <g id="Grupo_12" data-name="Grupo 12" transform="translate(76.443 9.223)">
        <path id="Trazado_22" data-name="Trazado 22" d="M715.364,101.541a2.151,2.151,0,0,1-1.592-.562,2.188,2.188,0,0,1-.562-1.615V87.007a1.964,1.964,0,0,1,2.177-2.177h5.758a6.3,6.3,0,0,1,4.341,1.369,4.838,4.838,0,0,1,1.533,3.8,5.073,5.073,0,0,1-.924,3.1,4.815,4.815,0,0,1-2.68,1.744,3.416,3.416,0,0,1,2.106,1.8l1.17,2.106a2.538,2.538,0,0,1,.339,1.334,1.438,1.438,0,0,1-.5,1.042,2.041,2.041,0,0,1-1.381.41,2.733,2.733,0,0,1-1.486-.363A3.094,3.094,0,0,1,722.642,100l-2.13-3.909a1.579,1.579,0,0,0-.714-.714,2.359,2.359,0,0,0-.995-.2h-1.287v4.189a2.213,2.213,0,0,1-.55,1.615,2.147,2.147,0,0,1-1.6.562Zm2.154-9.409h2.855q2.551,0,2.551-2.012c0-1.342-.85-1.99-2.551-1.99h-2.855Z" transform="translate(-712.111 -84.83)" fill="#0071bc"/>
        <path id="Trazado_23" data-name="Trazado 23" d="M867.437,101.34a1.976,1.976,0,0,1-2.247-2.223V87.063a1.976,1.976,0,0,1,2.247-2.223h7.935a1.47,1.47,0,0,1,1.685,1.638,1.5,1.5,0,0,1-1.685,1.685h-6.062V91.3h5.547a1.661,1.661,0,1,1,0,3.323h-5.547v3.393h6.062a1.661,1.661,0,1,1,0,3.323h-7.935Z" transform="translate(-847.567 -84.839)" fill="#0071bc"/>
        <path id="Trazado_24" data-name="Trazado 24" d="M999.617,101.34a1.976,1.976,0,0,1-2.247-2.223V87.063a1.976,1.976,0,0,1,2.247-2.223h4.587a9.516,9.516,0,0,1,6.647,2.154,7.816,7.816,0,0,1,2.364,6.085,7.854,7.854,0,0,1-2.364,6.1,9.482,9.482,0,0,1-6.647,2.165h-4.587Zm2.059-3.488h2.247a4.958,4.958,0,0,0,3.64-1.182,4.885,4.885,0,0,0,1.182-3.592,4.817,4.817,0,0,0-1.194-3.581,5,5,0,0,0-3.628-1.17h-2.247v9.526Z" transform="translate(-965.376 -84.839)" fill="#0071bc"/>
        <path id="Trazado_25" data-name="Trazado 25" d="M704.972,333.373a1.7,1.7,0,0,1-1.615-2.621l5.828-12.546a3.2,3.2,0,0,1,1.03-1.334,2.449,2.449,0,0,1,1.428-.422,2.372,2.372,0,0,1,1.4.422,3.2,3.2,0,0,1,1.03,1.334l5.828,12.546a1.851,1.851,0,0,1,.047,1.884,1.724,1.724,0,0,1-1.545.737,2.185,2.185,0,0,1-1.439-.421,3.55,3.55,0,0,1-.9-1.358l-.749-1.779h-7.372l-.749,1.779a4.332,4.332,0,0,1-.867,1.358,1.915,1.915,0,0,1-1.358.421Zm6.623-12.217-2.247,5.36h4.54l-2.247-5.36h-.047Z" transform="translate(-703.1 -291.268)" fill="#0071bc"/>
        <path id="Trazado_26" data-name="Trazado 26" d="M871.457,334.882a2.109,2.109,0,0,1-1.651-.609,1.982,1.982,0,0,1-.479-1.545,3.465,3.465,0,0,1,.843-1.9l7.092-8.917h-6.132q-1.849,0-1.849-1.779c0-1.186.617-1.756,1.849-1.756h9.128a2.149,2.149,0,0,1,1.661.609,1.927,1.927,0,0,1,.479,1.545,3.546,3.546,0,0,1-.854,1.9l-7.115,8.917h6.53q1.848,0,1.849,1.756a1.61,1.61,0,0,1-1.849,1.779Z" transform="translate(-851.212 -292.988)" fill="#0071bc"/>
        <path id="Trazado_27" data-name="Trazado 27" d="M1016.2,333.428a7.67,7.67,0,0,1-5.512-1.825,7.208,7.208,0,0,1-1.907-5.454v-7.513a2.181,2.181,0,0,1,.562-1.615,2.535,2.535,0,0,1,3.183,0,2.187,2.187,0,0,1,.562,1.615V326.2a4.028,4.028,0,0,0,.8,2.715,2.907,2.907,0,0,0,2.317.913,2.859,2.859,0,0,0,2.294-.913,4.029,4.029,0,0,0,.8-2.715v-7.559a2.213,2.213,0,0,1,.55-1.615,2.113,2.113,0,0,1,1.58-.562,2.067,2.067,0,0,1,1.568.562,2.243,2.243,0,0,1,.538,1.615v7.513a7.319,7.319,0,0,1-1.86,5.454,7.5,7.5,0,0,1-5.466,1.825Z" transform="translate(-975.546 -291.277)" fill="#0071bc"/>
        <path id="Trazado_28" data-name="Trazado 28" d="M1173.047,334.7a2.16,2.16,0,0,1-1.615-.573,2.2,2.2,0,0,1-.562-1.6v-12.17a2.181,2.181,0,0,1,.562-1.615,2.535,2.535,0,0,1,3.183,0,2.188,2.188,0,0,1,.562,1.615v10.766h5.711a1.88,1.88,0,0,1,1.369.469,1.748,1.748,0,0,1,.479,1.31,1.805,1.805,0,0,1-.479,1.334,1.879,1.879,0,0,1-1.369.468h-7.841Z" transform="translate(-1120.013 -292.81)" fill="#0071bc"/>
        </g>
    </g>
</svg>
